{
  "source": "C:\\Users\\Peter\\Desktop\\stuff\\MIUN\\quantitative_research\\video_compression\\videos\\BVI-HD\\Hamster_1920x1080_60fps.mp4",
  "output": "C:\\Users\\Peter\\Desktop\\stuff\\MIUN\\quantitative_research\\video_compression\\compressed_videos\\BVI-HD\\av1\\12\\Hamster_1920x1080_60fps_av1.mkv",
  "codec": "av1",
  "ok": "Input #0, mov,mp4,m4a,3gp,3g2,mj2, from 'C:\\Users\\Peter\\Desktop\\stuff\\MIUN\\quantitative_research\\video_compression\\videos\\BVI-HD\\Hamster_1920x1080_60fps.mp4':\n  Metadata:\n    major_brand     : isom\n    minor_version   : 512\n    compatible_brands: isomiso2avc1mp41\n    encoder         : Lavf54.28.101\n  Duration: 00:00:05.00, start: 0.000000, bitrate: 208485 kb/s\n  Stream #0:0[0x1](und): Video: h264 (High 4:4:4 Predictive) (avc1 / 0x31637661), yuv420p(progressive), 1920x1080, 208481 kb/s, 60 fps, 60 tbr, 60 tbn (default)\n    Metadata:\n      handler_name    : VideoHandler\n      vendor_id       : [0][0][0][0]\n[out#0/matroska @ 00000215d1ad9480] Codec AVOption b:a (set bitrate (in bits/s)) has not been used for any stream. The most likely reason is either wrong type (e.g. a video option with no video streams) or that it is a private option of some decoder which was not actually used for any stream.\nStream mapping:\n  Stream #0:0 -> #0:0 (h264 (native) -> av1 (libsvtav1))\nPress [q] to stop, [?] for help\nSvt[info]: -------------------------------------------\nSvt[info]: SVT [version]:\tSVT-AV1 Encoder Lib v3.1.0-19-g6ecfe8ec\nSvt[info]: SVT [build]  :\tGCC 15.2.0\t 64 bit\nSvt[info]: LIB Build date: Aug 17 2025 11:37:13\nSvt[info]: -------------------------------------------\nSvt[info]: Level of Parallelism: 5\nSvt[info]: Number of PPCS 93\nSvt[info]: [asm level on system : up to avx2]\nSvt[info]: [asm level selected : up to avx2]\nSvt[info]: -------------------------------------------\nSvt[info]: SVT [config]: main profile\ttier (auto)\tlevel (auto)\nSvt[info]: SVT [config]: width / height / fps numerator / fps denominator \t\t: 1920 / 1080 / 60 / 1\nSvt[info]: SVT [config]: bit-depth / color format \t\t\t\t\t: 8 / YUV420\nSvt[info]: SVT [config]: preset / tune / pred struct \t\t\t\t\t: 4 / PSNR / random access\nSvt[info]: SVT [config]: gop size / mini-gop size / key-frame type \t\t\t: 321 / 16 / key frame\nSvt[info]: SVT [config]: BRC mode / target bitrate (kbps)\t\t\t\t: VBR / 12000 \nSvt[info]: SVT [config]: AQ mode / Variance Boost \t\t\t\t\t: 2 / 0\nSvt[info]: SVT [config]: sharpness / luminance-based QP bias \t\t\t\t: 0 / 0\nSvt[info]: SVT [config]: QP scale compress strength \t\t\t\t\t: 0\nSvt[info]: -------------------------------------------\nOutput #0, matroska, to 'C:\\Users\\Peter\\Desktop\\stuff\\MIUN\\quantitative_research\\video_compression\\compressed_videos\\BVI-HD\\av1\\12\\Hamster_1920x1080_60fps_av1.mkv':\n  Metadata:\n    major_brand     : isom\n    minor_version   : 512\n    compatible_brands: isomiso2avc1mp41\n    encoder         : Lavf62.3.100\n  Stream #0:0(und): Video: av1 (AV01 / 0x31305641), yuv420p(tv, progressive), 1920x1080, q=2-31, 12000 kb/s, 60 fps, 1k tbn (default)\n    Metadata:\n      encoder         : Lavc62.11.100 libsvtav1\n      handler_name    : VideoHandler\n      vendor_id       : [0][0][0][0]\n    Side data:\n      cpb: bitrate max/min/avg: 0/0/12000000 buffer size: 12000000 vbv_delay: N/A\nframe=    0 fps=0.0 q=0.0 size=       0KiB time=N/A bitrate=N/A speed=N/A elapsed=0:00:01.02    \nframe=    0 fps=0.0 q=0.0 size=       0KiB time=N/A bitrate=N/A speed=N/A elapsed=0:00:01.56    \nframe=    0 fps=0.0 q=0.0 size=       0KiB time=N/A bitrate=N/A speed=N/A elapsed=0:00:02.13    \nframe=    0 fps=0.0 q=0.0 size=       0KiB time=N/A bitrate=N/A speed=N/A elapsed=0:00:02.65    \nframe=    0 fps=0.0 q=0.0 size=       0KiB time=N/A bitrate=N/A speed=N/A elapsed=0:00:03.16    \nframe=    0 fps=0.0 q=0.0 size=       0KiB time=N/A bitrate=N/A speed=N/A elapsed=0:00:03.69    \nframe=    0 fps=0.0 q=0.0 size=       0KiB time=N/A bitrate=N/A speed=N/A elapsed=0:00:04.23    \nframe=    0 fps=0.0 q=0.0 size=       0KiB time=N/A bitrate=N/A speed=N/A elapsed=0:00:04.76    \nframe=    1 fps=0.2 q=3.0 size=       1KiB time=00:00:00.00 bitrate=N/A speed=   0x elapsed=0:00:05.29    \nframe=    1 fps=0.2 q=3.0 size=       1KiB time=00:00:00.00 bitrate=N/A speed=   0x elapsed=0:00:05.84    \nframe=    1 fps=0.2 q=3.0 size=       1KiB time=00:00:00.00 bitrate=N/A speed=   0x elapsed=0:00:06.39    \nframe=    3 fps=0.4 q=18.0 size=       1KiB time=00:00:00.03 bitrate= 170.9kbits/s speed=0.00482x elapsed=0:00:06.91    \nframe=    5 fps=0.7 q=17.0 size=       1KiB time=00:00:00.06 bitrate=  85.4kbits/s speed=0.00895x elapsed=0:00:07.45    \nframe=    7 fps=0.9 q=17.0 size=       1KiB time=00:00:00.10 bitrate=  57.0kbits/s speed=0.0125x elapsed=0:00:07.98    \nframe=    9 fps=1.1 q=14.0 size=       1KiB time=00:00:00.13 bitrate=  42.7kbits/s speed=0.0156x elapsed=0:00:08.55    \nframe=   12 fps=1.3 q=21.0 size=       1KiB time=00:00:00.18 bitrate=  31.1kbits/s speed=0.0202x elapsed=0:00:09.08    \nframe=   16 fps=1.7 q=21.0 size=       1KiB time=00:00:00.25 bitrate=  22.8kbits/s speed=0.0259x elapsed=0:00:09.64    \nframe=   18 fps=1.8 q=13.0 size=       1KiB time=00:00:00.28 bitrate=  20.1kbits/s speed=0.0279x elapsed=0:00:10.16    \nframe=   20 fps=1.9 q=13.0 size=       1KiB time=00:00:00.30 bitrate=  19.0kbits/s speed=0.0281x elapsed=0:00:10.67    \nframe=   22 fps=2.0 q=14.0 size=       1KiB time=00:00:00.35 bitrate=  16.3kbits/s speed=0.0312x elapsed=0:00:11.22    \nframe=   25 fps=2.1 q=12.0 size=       1KiB time=00:00:00.40 bitrate=  14.2kbits/s speed=0.034x elapsed=0:00:11.77    \nframe=   28 fps=2.3 q=15.0 size=       1KiB time=00:00:00.43 bitrate=  13.1kbits/s speed=0.035x elapsed=0:00:12.36    \nframe=   33 fps=2.6 q=8.0 size=       1KiB time=00:00:00.53 bitrate=  10.7kbits/s speed=0.0412x elapsed=0:00:12.93    \nframe=   36 fps=2.7 q=16.0 size=       1KiB time=00:00:00.56 bitrate=  10.1kbits/s speed=0.042x elapsed=0:00:13.48    \nframe=   38 fps=2.7 q=15.0 size=       1KiB time=00:00:00.61 bitrate=   9.2kbits/s speed=0.0439x elapsed=0:00:14.06    \nframe=   42 fps=2.9 q=14.0 size=       1KiB time=00:00:00.66 bitrate=   8.5kbits/s speed=0.0457x elapsed=0:00:14.59    \nframe=   44 fps=2.9 q=15.0 size=       1KiB time=00:00:00.71 bitrate=   7.9kbits/s speed=0.0472x elapsed=0:00:15.19    \nframe=   50 fps=3.2 q=17.0 size=       1KiB time=00:00:00.81 bitrate=   7.0kbits/s speed=0.0519x elapsed=0:00:15.72    \nframe=   53 fps=3.3 q=16.0 size=       1KiB time=00:00:00.86 bitrate=   6.6kbits/s speed=0.0533x elapsed=0:00:16.27    \nframe=   55 fps=3.3 q=16.0 size=       1KiB time=00:00:00.90 bitrate=   6.3kbits/s speed=0.0535x elapsed=0:00:16.81    \nframe=   57 fps=3.3 q=11.0 size=       1KiB time=00:00:00.93 bitrate=   6.1kbits/s speed=0.0538x elapsed=0:00:17.33    \nframe=   59 fps=3.3 q=17.0 size=       1KiB time=00:00:00.96 bitrate=   5.9kbits/s speed=0.0541x elapsed=0:00:17.88    \nframe=   61 fps=3.3 q=15.0 size=       1KiB time=00:00:01.00 bitrate=   5.7kbits/s speed=0.0543x elapsed=0:00:18.43    \nframe=   64 fps=3.4 q=15.0 size=       1KiB time=00:00:01.05 bitrate=   5.4kbits/s speed=0.0553x elapsed=0:00:18.99    \nframe=   66 fps=3.4 q=13.0 size=       1KiB time=00:00:01.08 bitrate=   5.3kbits/s speed=0.0553x elapsed=0:00:19.58    \nframe=   69 fps=3.4 q=15.0 size=       1KiB time=00:00:01.13 bitrate=   5.0kbits/s speed=0.0561x elapsed=0:00:20.19    \nframe=   70 fps=3.4 q=16.0 size=       1KiB time=00:00:01.15 bitrate=   5.0kbits/s speed=0.0554x elapsed=0:00:20.74    \nframe=   73 fps=3.4 q=9.0 size=       1KiB time=00:00:01.20 bitrate=   4.7kbits/s speed=0.056x elapsed=0:00:21.44    \nframe=   75 fps=3.4 q=17.0 size=       1KiB time=00:00:01.23 bitrate=   4.6kbits/s speed=0.0559x elapsed=0:00:22.07    \nframe=   77 fps=3.4 q=15.0 size=       1KiB time=00:00:01.26 bitrate=   4.5kbits/s speed=0.0558x elapsed=0:00:22.71    \nframe=   82 fps=3.5 q=16.0 size=       1KiB time=00:00:01.33 bitrate=   4.3kbits/s speed=0.0571x elapsed=0:00:23.35    \nframe=   83 fps=3.5 q=16.0 size=       1KiB time=00:00:01.36 bitrate=   4.2kbits/s speed=0.0571x elapsed=0:00:23.93    \nframe=   85 fps=3.5 q=14.0 size=       1KiB time=00:00:01.40 bitrate=   4.1kbits/s speed=0.057x elapsed=0:00:24.54    \nframe=   86 fps=3.4 q=17.0 size=       1KiB time=00:00:01.41 bitrate=   4.0kbits/s speed=0.0562x elapsed=0:00:25.18    \nframe=   89 fps=3.5 q=8.0 size=       1KiB time=00:00:01.46 bitrate=   3.9kbits/s speed=0.057x elapsed=0:00:25.72    \nframe=   90 fps=3.4 q=18.0 size=       1KiB time=00:00:01.48 bitrate=   3.8kbits/s speed=0.0564x elapsed=0:00:26.31    \nframe=   93 fps=3.5 q=14.0 size=       1KiB time=00:00:01.53 bitrate=   3.7kbits/s speed=0.0571x elapsed=0:00:26.85    \nframe=   97 fps=3.5 q=1.0 size=       1KiB time=00:00:01.60 bitrate=   3.6kbits/s speed=0.0583x elapsed=0:00:27.45    \nframe=   99 fps=3.5 q=16.0 size=       1KiB time=00:00:01.61 bitrate=   3.5kbits/s speed=0.0576x elapsed=0:00:28.08    \nframe=  101 fps=3.5 q=14.0 size=       1KiB time=00:00:01.65 bitrate=   3.5kbits/s speed=0.0575x elapsed=0:00:28.69    \nframe=  102 fps=3.5 q=18.0 size=       1KiB time=00:00:01.68 bitrate=   3.4kbits/s speed=0.0574x elapsed=0:00:29.30    \nframe=  105 fps=3.5 q=8.0 size=       1KiB time=00:00:01.73 bitrate=   3.3kbits/s speed=0.0578x elapsed=0:00:29.98    \nframe=  106 fps=3.5 q=18.0 size=       1KiB time=00:00:01.75 bitrate=   3.3kbits/s speed=0.0571x elapsed=0:00:30.64    \nframe=  108 fps=3.5 q=17.0 size=       1KiB time=00:00:01.78 bitrate=   3.2kbits/s speed=0.0571x elapsed=0:00:31.25    \nframe=  112 fps=3.5 q=17.0 size=       1KiB time=00:00:01.85 bitrate=   3.1kbits/s speed=0.0582x elapsed=0:00:31.81    \nframe=  114 fps=3.5 q=18.0 size=       1KiB time=00:00:01.88 bitrate=   3.0kbits/s speed=0.0582x elapsed=0:00:32.38    \nframe=  116 fps=3.5 q=18.0 size=       1KiB time=00:00:01.91 bitrate=   3.0kbits/s speed=0.058x elapsed=0:00:33.04    \nframe=  118 fps=3.5 q=18.0 size=       1KiB time=00:00:01.93 bitrate=   2.9kbits/s speed=0.0574x elapsed=0:00:33.67    \nframe=  119 fps=3.5 q=15.0 size=       1KiB time=00:00:01.95 bitrate=   2.9kbits/s speed=0.0569x elapsed=0:00:34.24    \nframe=  121 fps=3.5 q=10.0 size=       1KiB time=00:00:02.00 bitrate=   2.8kbits/s speed=0.0574x elapsed=0:00:34.81    \nframe=  123 fps=3.5 q=17.0 size=       1KiB time=00:00:02.03 bitrate=   2.8kbits/s speed=0.0575x elapsed=0:00:35.35    \nframe=  128 fps=3.6 q=16.0 size=       1KiB time=00:00:02.11 bitrate=   2.7kbits/s speed=0.059x elapsed=0:00:35.89    \nframe=  129 fps=3.5 q=4.0 size=       1KiB time=00:00:02.13 bitrate=   2.7kbits/s speed=0.0586x elapsed=0:00:36.41    \nframe=  131 fps=3.5 q=19.0 size=       1KiB time=00:00:02.16 bitrate=   2.6kbits/s speed=0.0586x elapsed=0:00:36.97    \nframe=  133 fps=3.5 q=17.0 size=       1KiB time=00:00:02.20 bitrate=   2.6kbits/s speed=0.0586x elapsed=0:00:37.51    \nframe=  134 fps=3.5 q=20.0 size=       1KiB time=00:00:02.21 bitrate=   2.6kbits/s speed=0.0583x elapsed=0:00:38.05    \nframe=  137 fps=3.5 q=13.0 size=       1KiB time=00:00:02.26 bitrate=   2.5kbits/s speed=0.0587x elapsed=0:00:38.62    \nframe=  138 fps=3.5 q=20.0 size=       1KiB time=00:00:02.28 bitrate=   2.5kbits/s speed=0.0583x elapsed=0:00:39.16    \nframe=  143 fps=3.6 q=19.0 size=       1KiB time=00:00:02.35 bitrate=   2.4kbits/s speed=0.0592x elapsed=0:00:39.72    \nframe=  146 fps=3.6 q=22.0 size=       1KiB time=00:00:02.41 bitrate=   2.4kbits/s speed=0.06x elapsed=0:00:40.29    \nframe=  149 fps=3.6 q=19.0 size=       1KiB time=00:00:02.46 bitrate=   2.3kbits/s speed=0.0604x elapsed=0:00:40.87    \nframe=  152 fps=3.7 q=22.0 size=       1KiB time=00:00:02.51 bitrate=   2.3kbits/s speed=0.0608x elapsed=0:00:41.39    \nframe=  155 fps=3.7 q=19.0 size=       1KiB time=00:00:02.55 bitrate=   2.2kbits/s speed=0.0608x elapsed=0:00:41.92    \nframe=  159 fps=3.7 q=21.0 size=       1KiB time=00:00:02.63 bitrate=   2.2kbits/s speed=0.062x elapsed=0:00:42.50    \nframe=  161 fps=3.7 q=8.0 size=       1KiB time=00:00:02.66 bitrate=   2.1kbits/s speed=0.0619x elapsed=0:00:43.05    \nframe=  164 fps=3.8 q=24.0 size=       1KiB time=00:00:02.71 bitrate=   2.1kbits/s speed=0.0623x elapsed=0:00:43.57    \nframe=  166 fps=3.8 q=24.0 size=       1KiB time=00:00:02.75 bitrate=   2.1kbits/s speed=0.0623x elapsed=0:00:44.11    \nframe=  170 fps=3.8 q=24.0 size=       1KiB time=00:00:02.81 bitrate=   2.0kbits/s speed=0.0631x elapsed=0:00:44.64    \nframe=  176 fps=3.9 q=25.0 size=       1KiB time=00:00:02.91 bitrate=   2.0kbits/s speed=0.0645x elapsed=0:00:45.20    \nframe=  179 fps=3.9 q=25.0 size=       1KiB time=00:00:02.96 bitrate=   1.9kbits/s speed=0.0648x elapsed=0:00:45.74    \nframe=  182 fps=3.9 q=26.0 size=       1KiB time=00:00:03.01 bitrate=   1.9kbits/s speed=0.0652x elapsed=0:00:46.26    \nframe=  186 fps=4.0 q=26.0 size=       1KiB time=00:00:03.08 bitrate=   1.8kbits/s speed=0.0659x elapsed=0:00:46.80    \nframe=  191 fps=4.0 q=23.0 size=       1KiB time=00:00:03.16 bitrate=   1.8kbits/s speed=0.0669x elapsed=0:00:47.35    \nframe=  195 fps=4.1 q=24.0 size=       1KiB time=00:00:03.23 bitrate=   1.8kbits/s speed=0.0675x elapsed=0:00:47.90    \nframe=  198 fps=4.1 q=25.0 size=       1KiB time=00:00:03.28 bitrate=   1.7kbits/s speed=0.0678x elapsed=0:00:48.42    \nframe=  201 fps=4.1 q=20.0 size=       1KiB time=00:00:03.33 bitrate=   1.7kbits/s speed=0.0681x elapsed=0:00:48.97    \nframe=  205 fps=4.1 q=21.0 size=       1KiB time=00:00:03.40 bitrate=   1.7kbits/s speed=0.0686x elapsed=0:00:49.54    \nframe=  209 fps=4.2 q=13.0 size=       1KiB time=00:00:03.46 bitrate=   1.6kbits/s speed=0.0692x elapsed=0:00:50.08    \nframe=  213 fps=4.2 q=19.0 size=    5120KiB time=00:00:03.53 bitrate=11870.7kbits/s speed=0.0698x elapsed=0:00:50.58    \nframe=  217 fps=4.2 q=21.0 size=    5120KiB time=00:00:03.60 bitrate=11650.8kbits/s speed=0.0704x elapsed=0:00:51.11    \nframe=  219 fps=4.2 q=22.0 size=    5120KiB time=00:00:03.63 bitrate=11544.0kbits/s speed=0.0703x elapsed=0:00:51.65    \nframe=  221 fps=4.2 q=19.0 size=    5120KiB time=00:00:03.66 bitrate=11439.0kbits/s speed=0.0702x elapsed=0:00:52.21    \nframe=  225 fps=4.3 q=15.0 size=    5120KiB time=00:00:03.73 bitrate=11234.7kbits/s speed=0.0707x elapsed=0:00:52.78    \nframe=  229 fps=4.3 q=15.0 size=    5120KiB time=00:00:03.80 bitrate=11037.6kbits/s speed=0.0713x elapsed=0:00:53.31    \nframe=  231 fps=4.3 q=18.0 size=    5120KiB time=00:00:03.83 bitrate=10941.7kbits/s speed=0.0712x elapsed=0:00:53.86    \nframe=  233 fps=4.3 q=19.0 size=    5120KiB time=00:00:03.86 bitrate=10847.3kbits/s speed=0.0711x elapsed=0:00:54.38    \nframe=  237 fps=4.3 q=15.0 size=    5120KiB time=00:00:03.93 bitrate=10663.5kbits/s speed=0.0716x elapsed=0:00:54.90    \nframe=  239 fps=4.3 q=18.0 size=    5120KiB time=00:00:03.96 bitrate=10573.9kbits/s speed=0.0715x elapsed=0:00:55.46    \nframe=  243 fps=4.3 q=17.0 size=    5120KiB time=00:00:04.03 bitrate=10399.1kbits/s speed=0.072x elapsed=0:00:56.00    \nframe=  245 fps=4.3 q=14.0 size=    5120KiB time=00:00:04.06 bitrate=10313.9kbits/s speed=0.0719x elapsed=0:00:56.54    \nframe=  249 fps=4.4 q=15.0 size=    5120KiB time=00:00:04.13 bitrate=10147.5kbits/s speed=0.0724x elapsed=0:00:57.08    \nframe=  253 fps=4.4 q=14.0 size=    5120KiB time=00:00:04.20 bitrate=9986.4kbits/s speed=0.0729x elapsed=0:00:57.62    \nframe=  255 fps=4.4 q=17.0 size=    5120KiB time=00:00:04.23 bitrate=9907.8kbits/s speed=0.0728x elapsed=0:00:58.16    \nframe=  259 fps=4.4 q=19.0 size=    5120KiB time=00:00:04.30 bitrate=9754.2kbits/s speed=0.0732x elapsed=0:00:58.72    \nframe=  263 fps=4.4 q=15.0 size=    5120KiB time=00:00:04.36 bitrate=9605.3kbits/s speed=0.0736x elapsed=0:00:59.29    \nframe=  265 fps=4.4 q=14.0 size=    5120KiB time=00:00:04.40 bitrate=9532.5kbits/s speed=0.0736x elapsed=0:00:59.81    \nframe=  269 fps=4.5 q=16.0 size=    5120KiB time=00:00:04.46 bitrate=9390.2kbits/s speed=0.074x elapsed=0:01:00.34    \nframe=  273 fps=4.5 q=8.0 size=    5120KiB time=00:00:04.53 bitrate=9252.1kbits/s speed=0.0745x elapsed=0:01:00.88    \nframe=  277 fps=4.5 q=18.0 size=    5120KiB time=00:00:04.60 bitrate=9118.1kbits/s speed=0.0749x elapsed=0:01:01.41    \nframe=  281 fps=4.5 q=16.0 size=    5120KiB time=00:00:04.66 bitrate=8987.8kbits/s speed=0.0754x elapsed=0:01:01.93    \nframe=  283 fps=4.5 q=19.0 size=    5120KiB time=00:00:04.70 bitrate=8924.1kbits/s speed=0.0752x elapsed=0:01:02.47    \nframe=  285 fps=4.5 q=19.0 size=    5120KiB time=00:00:04.73 bitrate=8861.2kbits/s speed=0.0751x elapsed=0:01:02.99    \n[out#0/matroska @ 00000215d1ad9480] video:7233KiB audio:0KiB subtitle:0KiB other streams:0KiB global headers:0KiB muxing overhead: 0.030202%\nframe=  300 fps=4.7 q=19.0 Lsize=    7235KiB time=00:00:04.98 bitrate=11894.3kbits/s speed=0.0784x elapsed=0:01:03.52    \n",
  "seconds": 64.13617467880249,
  "probe_out": {}
}